# xmcd
#
# Track frame offsets:
#	150
#	14842
#	30710
#	44847
#	58820
#	76297
#	90307
#	104410
#	121335
#	138467
#	152412
#	168697
#
# Disc length: 2434 seconds
#
# Revision: 0
# Processed by: cddbd v1.5.2PL0 Copyright (c) Steve Scherf et al.
# Submitted via: EasyCDDAExtractor 10.2.0.1
#
DISCID=a109800c
DTITLE=Various Artist - Pinecastle Record -Radio Sampler
DYEAR=1997
DGENRE=Gospel
TTITLE0=Continental Devide - In My Father's Eyes
TTITLE1=The Rarely Herd - Every Knee Must Bow
TTITLE2=The New Coon Creek Girls - The Hammer
TTITLE3=Larry Stevenson - In The Garden
TTITLE4=New Vintage - Footprints
TTITLE5=Highstrung - Show 'Em Your Sermon
TTITLE6=Bass Mountain Boys - Summer's Gone
TTITLE7=New Tradition - He'll Use His Wings
TTITLE8=Dale Ann Bradley - Grandma's Gift
TTITLE9=Osborne Brothers - You Don't Have To Go Home
TTITLE10=Southern Rail - Glory Train
TTITLE11=The Reno Brothers - I'm Using My Bible For A Roadmap
EXTD=
EXTT0=
EXTT1=
EXTT2=
EXTT3=
EXTT4=
EXTT5=
EXTT6=
EXTT7=
EXTT8=
EXTT9=
EXTT10=
EXTT11=
PLAYORDER=
